<svg width="14" height="16" viewBox="0 0 14 16" fill="none" xmlns="http://www.w3.org/2000/svg">
<path d="M11.0199 8.48262C11.0057 7.89354 11.1565 7.31223 11.4553 6.80433C11.754 6.29644 12.1889 5.8822 12.7106 5.6084C12.3821 5.15221 11.9522 4.77844 11.4548 4.51646C10.9574 4.25448 10.4061 4.11145 9.84403 4.09859C8.64277 4.00391 7.32909 4.79939 6.84892 4.79939C6.34171 4.79939 5.1768 4.1324 4.26297 4.1324C2.37613 4.16706 0.368408 5.64306 0.368408 8.64492C0.377264 9.58174 0.542111 10.5105 0.85618 11.3932C1.289 12.6359 2.85292 15.6817 4.48446 15.631C5.33742 15.6107 5.94016 15.0248 7.05012 15.0248C8.12626 15.0248 8.68504 15.631 9.63607 15.631C11.2811 15.6073 12.6963 12.8413 13.1088 11.5927C12.4908 11.3406 11.9621 10.91 11.5901 10.3558C11.2182 9.80167 11.0199 9.14918 11.0208 8.48177L11.0199 8.48262ZM9.10434 2.92523C9.40328 2.59589 9.63 2.20763 9.76991 1.78542C9.90983 1.36321 9.95984 0.916389 9.91673 0.473694C9.03014 0.568994 8.21077 0.990885 7.6182 1.6572C7.31525 1.98114 7.08209 2.36388 6.93318 2.78167C6.78428 3.19945 6.72279 3.64338 6.75255 4.08591C7.20909 4.09561 7.66124 3.99519 8.07075 3.79316C8.48026 3.59112 8.83508 3.29342 9.10518 2.92523H9.10434Z" fill="black"/>
</svg>
