<svg width="16" height="16" viewBox="0 0 16 16" fill="none" xmlns="http://www.w3.org/2000/svg">
<path d="M15.2676 8.0529C15.2673 6.60414 14.8518 5.18582 14.0704 3.96586C13.2889 2.7459 12.1743 1.77538 10.8585 1.1692C9.54263 0.563029 8.08064 0.346583 6.6456 0.545491C5.21056 0.744399 3.86255 1.35033 2.76118 2.29155C1.65981 3.23277 0.851199 4.46986 0.431065 5.85637C0.0109304 7.24288 -0.00312813 8.72073 0.390558 10.115C0.784243 11.5092 1.56918 12.7615 2.65245 13.7235C3.73572 14.6855 5.07195 15.3169 6.50295 15.5431V10.243H4.57902V8.0529H6.50211V6.38335C6.46082 5.99332 6.50582 5.59898 6.63392 5.22827C6.76202 4.85756 6.97008 4.51957 7.24337 4.23824C7.51666 3.95691 7.84849 3.73913 8.21533 3.60034C8.58216 3.46155 8.97504 3.40515 9.36611 3.43512C9.93537 3.44322 10.5033 3.49334 11.0651 3.58506V5.45003H10.1082C9.94546 5.42854 9.77994 5.44391 9.62392 5.49503C9.4679 5.54614 9.32537 5.63168 9.20688 5.74532C9.08839 5.85896 8.99697 5.99779 8.93938 6.15154C8.88179 6.30528 8.8595 6.47002 8.87418 6.63354V8.0529H10.9801L10.6431 10.243H8.87418V15.5397C10.6566 15.257 12.2796 14.3477 13.4516 12.9753C14.6235 11.603 15.2675 9.85757 15.2676 8.0529Z" fill="#009EE2"/>
<path d="M10.6399 10.2463L10.9768 8.05623H8.87094V6.63434C8.85627 6.47082 8.87856 6.30609 8.93615 6.15235C8.99374 5.9986 9.08516 5.85977 9.20365 5.74613C9.32214 5.63249 9.46467 5.54694 9.62069 5.49583C9.7767 5.44471 9.94222 5.42935 10.105 5.45084H11.0611V3.58587C10.4992 3.49414 9.9313 3.44402 9.36204 3.43592C8.97097 3.40595 8.57809 3.46236 8.21125 3.60115C7.84441 3.73994 7.51258 3.95772 7.23929 4.23905C6.966 4.52037 6.75794 4.85836 6.62984 5.22907C6.50174 5.59978 6.45674 5.99412 6.49803 6.38416V8.05371H4.57495V10.2438H6.49803V15.5405C6.88947 15.6024 7.28524 15.6328 7.68154 15.6315C8.07804 15.6308 8.47393 15.6004 8.86589 15.5405V10.2438L10.6399 10.2463Z" fill="white"/>
</svg>
