<?xml version="1.0" encoding="UTF-8" standalone="no"?>
<!-- Uploaded to: SVG Repo, www.svgrepo.com, Generator: SVG Repo Mixer Tools -->

<svg
   width="800px"
   height="800px"
   viewBox="0 0 15 15"
   fill="none"
   version="1.1"
   id="svg1"
   xmlns="http://www.w3.org/2000/svg"
   xmlns:svg="http://www.w3.org/2000/svg">
  <defs
     id="defs1" />
  <path
     fill-rule="evenodd"
     clip-rule="evenodd"
     d="M 1.40625,1.9602273 C 1.40625,1.6542766 1.6542766,1.40625 1.9602273,1.40625 h 3.3238636 c 0.3059506,0 0.5539773,0.2480266 0.5539773,0.5539773 0,0.3059505 -0.2480267,0.5539772 -0.5539773,0.5539772 H 2.5142045 v 2.7698864 c 0,0.3059506 -0.2480267,0.5539773 -0.5539772,0.5539773 -0.3059507,0 -0.5539773,-0.2480267 -0.5539773,-0.5539773 z m 7.7556822,0 c 0,-0.3059507 0.2480261,-0.5539773 0.5539771,-0.5539773 h 3.3238637 c 0.305906,0 0.553977,0.2480266 0.553977,0.5539773 v 3.3238636 c 0,0.3059506 -0.248071,0.5539773 -0.553977,0.5539773 -0.305906,0 -0.553978,-0.2480267 -0.553978,-0.5539773 V 2.5142045 H 9.7159093 c -0.305951,0 -0.5539771,-0.2480267 -0.5539771,-0.5539772 z M 1.9602273,9.1619322 c 0.3059505,0 0.5539772,0.2480261 0.5539772,0.5539771 v 2.7698857 h 2.7698864 c 0.3059506,0 0.5539773,0.248072 0.5539773,0.553978 0,0.305906 -0.2480267,0.553977 -0.5539773,0.553977 H 1.9602273 C 1.6542766,13.59375 1.40625,13.345679 1.40625,13.039773 V 9.7159093 c 0,-0.305951 0.2480266,-0.5539771 0.5539773,-0.5539771 z m 11.0795457,0 c 0.305906,0 0.553977,0.2480261 0.553977,0.5539771 v 3.3238637 c 0,0.305906 -0.248071,0.553977 -0.553977,0.553977 H 9.7159093 c -0.305951,0 -0.5539771,-0.248071 -0.5539771,-0.553977 0,-0.305906 0.2480261,-0.553978 0.5539771,-0.553978 H 12.485795 V 9.7159093 c 0,-0.305951 0.248072,-0.5539771 0.553978,-0.5539771 z"
     fill="#ffffff"
     id="path1"
     style="stroke-width:1.10795" />
</svg>
