<svg width="16" height="16" viewBox="0 0 16 16" fill="none" xmlns="http://www.w3.org/2000/svg">
<path d="M15.5882 8.22517C15.5891 7.7091 15.5452 7.19394 15.4569 6.68549H8.31409V9.60323H12.4068C12.3228 10.0695 12.1453 10.5139 11.8848 10.9096C11.6243 11.3053 11.2864 11.6442 10.8914 11.9057V13.799H13.3332C14.0783 13.0795 14.664 12.2116 15.0524 11.2515C15.4409 10.2913 15.6234 9.26031 15.5882 8.22517Z" fill="#009EE2"/>
<path d="M8.31192 15.6287C10.1579 15.6804 11.954 15.026 13.3341 13.799L10.8922 11.9057C10.3042 12.2821 9.63825 12.5196 8.9448 12.6001C8.25134 12.6807 7.54865 12.6022 6.89006 12.3706C6.23147 12.139 5.63429 11.7604 5.14385 11.2636C4.65341 10.7668 4.2826 10.1648 4.05957 9.50323H1.54291V11.4551C2.17367 12.7097 3.14065 13.7643 4.33591 14.5013C5.53118 15.2382 6.90772 15.6286 8.31192 15.6287Z" fill="#34A853"/>
<path d="M4.05949 9.5005C3.74219 8.55968 3.74219 7.54076 4.05949 6.59993V4.65106H1.54283C1.01282 5.70686 0.736816 6.87188 0.736816 8.05324C0.736816 9.2346 1.01282 10.3996 1.54283 11.4554L4.05949 9.5005Z" fill="#FBBC04"/>
<path d="M8.31192 3.47281C9.39227 3.45524 10.4362 3.8631 11.2186 4.60838L13.3836 2.44533C12.0112 1.15766 10.1937 0.451268 8.31192 0.474237C6.9074 0.474657 5.53064 0.865439 4.33534 1.60296C3.14005 2.34047 2.17325 3.3957 1.54291 4.65082L4.05957 6.60272C4.3525 5.70214 4.92019 4.91595 5.68289 4.35457C6.44558 3.7932 7.36497 3.48484 8.31192 3.47281Z" fill="#EA4335"/>
</svg>
