<svg width="22" height="12" viewBox="0 0 22 12" fill="none" xmlns="http://www.w3.org/2000/svg">
<path d="M10.9999 9.37497C8.39256 9.37497 6.28194 7.99896 6.08772 6.25523L2.48179 4.35517C2.00776 4.76064 1.57155 5.18931 1.21955 5.65805C1.14091 5.76411 1.09994 5.88128 1.09994 6.00012C1.09994 6.11895 1.14091 6.23613 1.21955 6.34218C3.0837 8.82208 6.77419 10.5 10.9999 10.5C11.9249 10.5 12.8173 10.4062 13.6774 10.2548L11.8936 9.31379C11.5991 9.35259 11.2999 9.37307 10.9999 9.37497ZM21.7874 10.7367L17.9873 8.73419C19.1416 8.07089 20.091 7.25771 20.7802 6.34195C20.8589 6.23589 20.8998 6.11872 20.8998 5.99988C20.8998 5.88105 20.8589 5.76387 20.7802 5.65782C18.9161 3.17792 15.2256 1.50005 10.9999 1.50005C9.2301 1.50151 7.48905 1.80529 5.93578 2.38363L1.56261 0.0790451C1.50558 0.0487894 1.44037 0.0264918 1.3707 0.0134266C1.30103 0.000361469 1.22826 -0.00321525 1.15656 0.00290088C1.08486 0.00901701 1.01564 0.0247061 0.952833 0.0490716C0.89003 0.0734371 0.834885 0.106001 0.790548 0.144904L0.115769 0.737163C0.0262563 0.815674 -0.0138538 0.915212 0.00426046 1.01388C0.0223747 1.11256 0.0972298 1.20228 0.212362 1.26333L20.4372 11.921C20.4942 11.9512 20.5594 11.9735 20.6291 11.9866C20.6988 11.9996 20.7715 12.0032 20.8432 11.9971C20.9149 11.991 20.9841 11.9753 21.047 11.9509C21.1098 11.9266 21.1649 11.894 21.2092 11.8551L21.8844 11.2628C21.9738 11.1843 22.0139 11.0847 21.9957 10.9861C21.9775 10.8874 21.9026 10.7977 21.7874 10.7367ZM15.4721 7.40858L14.1211 6.69656C14.2349 6.47237 14.2952 6.2372 14.2999 6C14.3066 5.65272 14.1937 5.30921 13.9704 4.99706C13.7471 4.68491 13.4195 4.41282 13.014 4.20265C12.6084 3.99248 12.1363 3.85008 11.6354 3.7869C11.1345 3.72372 10.6188 3.74151 10.1299 3.83885C10.3371 4.03036 10.4493 4.26201 10.4499 4.50002C10.4448 4.57922 10.427 4.6578 10.397 4.73439L7.86662 3.40104C8.74558 2.90024 9.85443 2.62561 10.9999 2.62503C11.65 2.62479 12.2939 2.71192 12.8946 2.88144C13.4953 3.05096 14.0411 3.29955 14.5009 3.61299C14.9606 3.92643 15.3252 4.29858 15.5738 4.70817C15.8224 5.11775 15.9502 5.55672 15.9499 6C15.9499 6.50695 15.768 6.97921 15.4721 7.40858Z" fill="#A8A7A7"/>
</svg>
