<svg fill="#6e7074" width="85" height="63" viewBox="0 0 3.4 2.52" xmlns="http://www.w3.org/2000/svg">
<path d="m 2.5906656,2.0456239 c 0.1457558,0.080667 0.2294984,0.2170958 0.2201717,0.3566006 -0.00933,0.086819 -0.00933,0.089894 -0.1209506,0.102297 C 2.6185467,2.5138483 2.1844543,2.52 1.7379593,2.52 1.2325269,2.52 0.70546442,2.5137492 0.6650814,2.5045215 0.51624974,2.4642377 0.59681728,2.1882046 0.79843458,2.0611024 0.9535172,1.9588054 1.2697348,1.8067987 1.3534775,1.7882443 1.4713522,1.763439 1.4868307,1.692099 1.3565537,1.4595248 1.3254975,1.4068383 1.2882895,1.2486798 1.2852136,1.0811946 1.2789624,0.81448827 1.3348239,0.63162375 1.5673982,0.54480528 1.6108571,0.52932679 1.6604677,0.52 1.7069031,0.52 c 0.1550826,0 0.3007392,0.0868185 0.3596765,0.21392072 0.083743,0.17056111 0.049611,0.61705608 -0.040284,0.77829038 -0.099221,0.1860396 -0.089894,0.2419011 0.024805,0.2728581 0.074416,0.018654 0.3069902,0.1333532 0.5395645,0.2604554 z"/>
</svg>
