<svg width="44" height="44" viewBox="0 0 44 44" fill="none" xmlns="http://www.w3.org/2000/svg">
<path d="M15.0011 27.6023C15.0011 27.9869 15.1344 28.3123 15.401 28.5785C15.6677 28.8447 16.001 28.9852 16.4009 29H19.2004C19.5856 29 19.9188 28.8595 20.2003 28.5785C20.4817 28.2975 20.615 27.9721 20.6002 27.6023V16.3988C20.6002 16.0142 20.4669 15.6815 20.2003 15.4004C19.9337 15.1194 19.6004 14.9863 19.2004 15.0011H16.4009C16.0158 15.0011 15.6825 15.1342 15.401 15.4004C15.1196 15.6667 14.9863 15.9994 15.0011 16.3988V27.6023ZM23.3998 27.6023C23.3998 27.9869 23.5405 28.3123 23.8219 28.5785C24.1034 28.8447 24.4292 28.9852 24.7996 29H27.5991C27.9842 29 28.3175 28.8595 28.599 28.5785C28.8804 28.2975 29.0137 27.9721 28.9989 27.6023V16.3988C28.9989 16.0142 28.8656 15.6815 28.599 15.4004C28.3323 15.1194 27.999 14.9863 27.5991 15.0011H24.7996C24.4144 15.0011 24.0886 15.1342 23.8219 15.4004C23.5553 15.6667 23.4146 15.9994 23.3998 16.3988V27.6023Z" fill="white"/>
<circle cx="22" cy="22" r="21" stroke="white" stroke-width="2"/>
</svg>
