<?xml version="1.0" encoding="UTF-8" standalone="no"?>
<svg
   width="48"
   height="48"
   viewBox="0 0 48 48"
   fill="none"
   version="1.1"
   id="svg1"
   xmlns="http://www.w3.org/2000/svg"
   xmlns:svg="http://www.w3.org/2000/svg">
  <defs
     id="defs1" />
  <path
     fill-rule="evenodd"
     clip-rule="evenodd"
     d="m 1.5286502,26.019753 c 1.9311,-1.7927 1.3768,-1.5859 5.861,-0.2759 3.9329998,1.2415 2.0695,1.6551 5.5857998,-0.3444 3.1742,-1.8628 8.3472,-3.7255 10.7626,-5.173 -0.8987,-2.0011 -8.6231,-8.5532 -10.4859,-11.2430998 0.6912,-0.3444 1.2424,-0.6212 2.0004,-0.9664 1.1731,-0.5512 0.8971,-0.5512 2.2762,0.276 3.0351,1.7250998 12.7615,7.2424998 14.6926,8.0711998 2.5507,-1.1039 9.31199,-4.5533 11.65515,-4.415 1.10472,0.0685 2.899016,0.3444 2.55073,1.7244 -0.894815,3.3794 -6.96494,5.2429 -10.89718,6.9672 -1.5844,0.6888 -1.1708,0.6197 -1.516,2.3455 -0.4159,1.862 -3.0366,15.38137 -3.657,16.07017 -0.276,0.2068 -2.4139,1.10317 -2.8267,1.31074 -0.2076,-1.24232 -0.3451,-2.62147 -0.4143,-3.93143 l -0.6889,-7.65608 c 0,-1.2415 -0.2075,-2.6899 -0.4151,-3.8622 -1.7927,0.8963 -3.5863,1.6551 -5.449,2.5515 -9.2412,4.415 -7.5884,1.4483 -9.724,6.4145 -1.2438998,2.75907 -1.2438998,4.41499 -3.9329998,3.99985 0.4836,-5.51735 -1.0316,-8.96685 -5.3774,-11.86355 z"
     fill="#faa935"
     id="path1" />
</svg>
